<svg xmlns="http://www.w3.org/2000/svg" width="25" height="24.997" viewBox="0 0 25 24.997">
  <path id="Path_156" data-name="Path 156" d="M114.76,135.5h1.562c.3.036.6.068.892.109a12.509,12.509,0,0,1,4.11,23.469,10.9,10.9,0,0,1-2.306.922v-9.241h2.67l.405-3.127h-3.074c0-.832-.035-1.639.011-2.44a.989.989,0,0,1,.95-1.007,11.347,11.347,0,0,1,1.362-.058c.274-.007.548,0,.824,0v-2.814c-.587-.032-1.161-.092-1.735-.088a8.778,8.778,0,0,0-1.793.121,3.533,3.533,0,0,0-2.848,3.446c-.042.844-.022,1.692-.029,2.538,0,.1,0,.19,0,.313H113.1v3.134h2.644v9.7a.9.9,0,0,1-.09.014c-.066,0-.131,0-.2,0a11.928,11.928,0,0,1-5.167-1.163,12.336,12.336,0,0,1-7.053-9.156c-.091-.461-.131-.931-.194-1.4v-1.562c.019-.16.041-.32.058-.481a12.52,12.52,0,0,1,10.31-11.048C113.859,135.612,114.311,135.562,114.76,135.5Z" transform="translate(-103.043 -135.5)" fill="#fff"/>
</svg>
