<svg xmlns="http://www.w3.org/2000/svg" xmlns:xlink="http://www.w3.org/1999/xlink" width="786.455" height="423.142" viewBox="0 0 786.455 423.142"><defs><filter id="a" x="0" y="0" width="786.455" height="423.142" filterUnits="userSpaceOnUse"><feOffset dy="3" input="SourceAlpha"/><feGaussianBlur stdDeviation="6" result="b"/><feFlood flood-color="#232323" flood-opacity="0.122"/><feComposite operator="in" in2="b"/><feComposite in="SourceGraphic"/></filter></defs><g transform="translate(18 15)"><g transform="matrix(1, 0, 0, 1, -18, -15)" filter="url(#a)"><path d="M270.841,695.855c.036.027,695.419-.086,695.419-.086,22.894-48.833,22.854-72.691,25.46-100.681C1006.1,440.382,889.58,416.6,855.444,410.146,750.921,390.393,798.493,292.66,526.123,311c-24.963,1.68-83.822,15.249-104.107,24.039-14.227,6.16-67.83,33.726-83.558,80.355-4.967,14.717-6.159,31.332-1.151,49.774,17.726,65.257-28.487,61.506-62.256,92.6C229.98,599.272,234.692,667.147,270.841,695.855Z" transform="translate(-224.49 -293.72)" fill="#eef8ff"/></g><g transform="translate(437.686 318.4)"><path d="M1834.375,1530.494h.1a1,1,0,0,0,1-1.024l-1.517-65.751-4.469-.521,3.811,66.277A1.081,1.081,0,0,0,1834.375,1530.494Z" transform="translate(-1829.485 -1463.198)" fill="#a1d6ce"/></g><g transform="translate(463.726 318.4)"><path d="M1928.794,1530.494h.1a1,1,0,0,0,1-1.024l-1.517-65.751-4.469-.521,3.811,66.277A1.082,1.082,0,0,0,1928.794,1530.494Z" transform="translate(-1923.904 -1463.198)" fill="#8ac1b6"/></g><g transform="translate(395.664 318.4)"><path d="M1678.214,1530.494h-.1a1,1,0,0,1-1-1.024l1.517-65.751,4.468-.521-3.81,66.277A1.081,1.081,0,0,1,1678.214,1530.494Z" transform="translate(-1677.118 -1463.198)" fill="#a1d6ce"/></g><path d="M1791.742,1294.3v-45.056a14.354,14.354,0,0,0-14.354-14.355h-32.462a14.355,14.355,0,0,0-14.355,14.355v46.777Z" transform="translate(-1320.165 -979.455)" fill="#a1d6ce"/><path d="M7.113,0H66.987a0,0,0,0,1,0,0V7.113a0,0,0,0,1,0,0H0a0,0,0,0,1,0,0v0A7.113,7.113,0,0,1,7.113,0Z" transform="translate(471.577 321.957) rotate(180)" fill="#8ac1b6"/><path d="M3.556,0H50.235a3.556,3.556,0,0,1,3.556,3.556v0a3.556,3.556,0,0,1-3.556,3.556H3.557A3.557,3.557,0,0,1,0,3.556v0A3.556,3.556,0,0,1,3.556,0Z" transform="translate(447.684 321.957) rotate(180)" fill="#b5e2de"/><rect width="187.136" height="161.543" transform="translate(319.206 77.706)" fill="#51c4c2"/><rect width="179.934" height="155.63" transform="translate(322.769 80.398)" fill="#dcefff"/><path d="M1537.3,700.639h-39.429V651.4l6.686-6.027H1537.3Z" transform="translate(-1151.645 -552.528)" fill="#fff"/><path d="M1497.874,651.4h6.471l.215-6.027Z" transform="translate(-1151.645 -552.528)" fill="#bae8e3"/><rect width="12.624" height="0.601" transform="translate(359.631 97.642)" fill="#bae8e3"/><rect width="18.568" height="0.601" transform="translate(356.659 99.445)" fill="#bae8e3"/><rect width="30.831" height="0.773" transform="translate(350.897 111.028)" fill="#bae8e3"/><rect width="30.831" height="0.773" transform="translate(350.897 113.376)" fill="#bae8e3"/><rect width="30.831" height="0.773" transform="translate(350.897 115.723)" fill="#bae8e3"/><rect width="30.831" height="0.773" transform="translate(350.897 118.071)" fill="#bae8e3"/><rect width="30.831" height="0.773" transform="translate(350.897 143.191)" fill="#bae8e3"/><path d="M1702.38,948.318h-39.429V899.083l6.686-6.027h32.743Z" transform="translate(-1271.194 -731.898)" fill="#fff"/><path d="M1662.951,899.083h6.471l.215-6.027Z" transform="translate(-1271.194 -731.898)" fill="#b5e2de"/><rect width="12.625" height="0.601" transform="translate(405.159 165.95)" fill="#bae8e3"/><rect width="18.568" height="0.601" transform="translate(402.187 167.754)" fill="#bae8e3"/><rect width="30.831" height="0.773" transform="translate(396.424 179.337)" fill="#bae8e3"/><rect width="30.831" height="0.773" transform="translate(396.424 181.684)" fill="#bae8e3"/><rect width="30.831" height="0.773" transform="translate(396.424 184.032)" fill="#bae8e3"/><rect width="30.831" height="0.773" transform="translate(396.424 186.379)" fill="#bae8e3"/><rect width="30.831" height="0.773" transform="translate(396.424 193.602)" fill="#bae8e3"/><rect width="30.831" height="0.773" transform="translate(396.424 195.949)" fill="#bae8e3"/><rect width="30.831" height="0.773" transform="translate(396.424 198.672)" fill="#bae8e3"/><rect width="21.772" height="19.194" transform="translate(431.663 92.849)" fill="#b5e2de"/><path d="M1843.663,651.16a.953.953,0,1,1,.953.953A.953.953,0,0,1,1843.663,651.16Z" transform="translate(-1402.067 -556.026)" fill="#51c4c2"/><rect width="21.772" height="19.194" transform="translate(431.021 119.591) rotate(-3.993)" fill="#fff"/><path d="M1842.12,749.725a.953.953,0,1,1,1.017.885A.953.953,0,0,1,1842.12,749.725Z" transform="translate(-1400.948 -627.359)" fill="#51c4c2"/><rect width="21.772" height="19.194" transform="translate(358.672 190.305) rotate(-3.993)" fill="#fff"/><path d="M1579.79,1006.125a.953.953,0,1,1,1.017.885A.954.954,0,0,1,1579.79,1006.125Z" transform="translate(-1210.967 -813.045)" fill="#51c4c2"/><rect width="21.772" height="19.194" transform="matrix(1, -0.01, 0.01, 1, 331.294, 202.787)" fill="#fff"/><path d="M1479.862,1053.7a.953.953,0,1,1,.963.943A.953.953,0,0,1,1479.862,1053.7Z" transform="translate(-1138.601 -847.542)" fill="#51c4c2"/><rect width="21.772" height="19.194" transform="translate(464.271 129.669) rotate(10.133)" fill="#eef6ff"/><path d="M1960.083,792.783a.829.829,0,1,1,.67.962A.829.829,0,0,1,1960.083,792.783Z" transform="translate(-1486.369 -658.786)" fill="#51c4c2"/><rect width="21.772" height="19.194" transform="translate(397.177 120.037) rotate(-6.177)" fill="#b5e2de"/><path d="M1719.86,747a.829.829,0,1,1,.913.735A.829.829,0,0,1,1719.86,747Z" transform="translate(-1312.405 -625.455)" fill="#51c4c2"/><rect width="21.772" height="19.194" transform="translate(341.016 167.607) rotate(-12.037)" fill="#bae8e3"/><path d="M1516.909,915.922a.829.829,0,1,1,1.146-.244A.829.829,0,0,1,1516.909,915.922Z" transform="translate(-1165.156 -747.354)" fill="#51c4c2"/><path d="M1708.745,664.572h-20.722V650.649l5.737-5.271h14.985Z" transform="translate(-1289.352 -552.528)" fill="#fff"/><path d="M1687.622,650.649h5.66l.188-5.271Z" transform="translate(-1289.061 -552.528)" fill="#bae8e3"/><path d="M1725.867,650.027a.681.681,0,1,1,.682.681A.681.681,0,0,1,1725.867,650.027Z" transform="translate(-1316.758 -555.402)" fill="#51c4c2"/><path d="M1928.279,1077.825h-20.722V1063.9l5.737-5.271h14.985Z" transform="translate(-1448.339 -851.808)" fill="#fff"/><path d="M1907.156,1063.9h5.66l.188-5.271Z" transform="translate(-1448.049 -851.808)" fill="#bae8e3"/><path d="M1945.4,1063.281a.681.681,0,1,1,.681.682A.681.681,0,0,1,1945.4,1063.281Z" transform="translate(-1475.746 -854.683)" fill="#51c4c2"/><path d="M1962.554,977.639h-20.722V963.716l5.737-5.271h14.985Z" transform="translate(-1473.162 -779.253)" fill="#fff"/><path d="M1941.432,963.716h5.66l.188-5.271Z" transform="translate(-1472.871 -779.253)" fill="#bae8e3"/><path d="M1979.677,963.094a.681.681,0,1,1,.681.681A.681.681,0,0,1,1979.677,963.094Z" transform="translate(-1500.569 -782.127)" fill="#51c4c2"/><g transform="translate(441.214 179.192)"><path d="M1863.4,977.639h-20.722V963.716l5.737-5.271H1863.4Z" transform="translate(-1842.566 -958.444)" fill="#bae8e3"/><path d="M1842.276,963.716h5.66l.188-5.271Z" transform="translate(-1842.276 -958.444)" fill="#a1d6ce"/></g><path d="M1880.522,963.094a.681.681,0,1,1,.681.681A.681.681,0,0,1,1880.522,963.094Z" transform="translate(-1428.761 -782.127)" fill="#51c4c2"/><g transform="translate(474.408 88.044)"><path d="M1983.758,647.15h-20.723V633.226l5.737-5.271h14.985Z" transform="translate(-1962.925 -627.955)" fill="#bae8e3"/><path d="M1962.635,633.226h5.66l.188-5.271Z" transform="translate(-1962.635 -627.955)" fill="#a1d6ce"/></g><path d="M2000.88,632.6a.681.681,0,1,1,.681.681A.681.681,0,0,1,2000.88,632.6Z" transform="translate(-1515.924 -542.784)" fill="#51c4c2"/><rect width="45.997" height="44.624" rx="11.929" transform="translate(247.614 29.174)" fill="#a1d6ce"/><rect width="42.012" height="40.758" rx="10.896" transform="translate(249.607 31.108)" fill="#bae8e3"/><g transform="translate(253.045 34.228)"><g transform="translate(16.615)"><path d="M1220.243,433.775a.953.953,0,1,1,.953.953A.953.953,0,0,1,1220.243,433.775Z" transform="translate(-1220.243 -432.822)" fill="#a1d6ce"/><path d="M1247.8,439.873a.953.953,0,1,1,.37,1.3A.953.953,0,0,1,1247.8,439.873Z" transform="translate(-1240.116 -437.573)" fill="#a1d6ce"/><path d="M1270.856,459.734a.953.953,0,1,1-.284,1.317A.953.953,0,0,1,1270.856,459.734Z" transform="translate(-1256.582 -452.202)" fill="#a1d6ce"/><path d="M1281.331,489.5a.953.953,0,1,1-.953.953A.953.953,0,0,1,1281.331,489.5Z" transform="translate(-1263.793 -473.87)" fill="#a1d6ce"/><path d="M1273.521,522.851a.953.953,0,1,1-1.348,0A.952.952,0,0,1,1273.521,522.851Z" transform="translate(-1257.649 -497.82)" fill="#a1d6ce"/><path d="M1251.827,544.6a.953.953,0,1,1-1.347,0A.953.953,0,0,1,1251.827,544.6Z" transform="translate(-1241.938 -513.572)" fill="#a1d6ce"/><path d="M1220.243,554.044a.953.953,0,1,1,.953.953A.953.953,0,0,1,1220.243,554.044Z" transform="translate(-1220.243 -519.922)" fill="#a1d6ce"/></g><g transform="translate(0 1.809)"><path d="M1194.476,439.873a.953.953,0,1,0-.37,1.3A.953.953,0,0,0,1194.476,439.873Z" transform="translate(-1183.674 -439.382)" fill="#a1d6ce"/><path d="M1171.424,459.734a.953.953,0,1,0,.284,1.317A.953.953,0,0,0,1171.424,459.734Z" transform="translate(-1167.209 -454.011)" fill="#a1d6ce"/><path d="M1160.951,489.5a.953.953,0,1,0,.953.953A.953.953,0,0,0,1160.951,489.5Z" transform="translate(-1159.998 -475.679)" fill="#a1d6ce"/><path d="M1168.76,522.851a.953.953,0,1,0,1.348,0A.953.953,0,0,0,1168.76,522.851Z" transform="translate(-1166.142 -499.629)" fill="#a1d6ce"/><path d="M1190.455,544.6a.953.953,0,1,0,1.347,0A.952.952,0,0,0,1190.455,544.6Z" transform="translate(-1181.853 -515.381)" fill="#a1d6ce"/></g></g><g transform="translate(270.356 38.909)"><path d="M1222.766,490.455a.953.953,0,1,1,.953.953A.953.953,0,0,1,1222.766,490.455Z" transform="translate(-1222.766 -478.552)" fill="#a1d6ce"/><g transform="translate(0.823 0)"><rect width="0.26" height="11.903" fill="#a1d6ce"/></g><g transform="translate(0.592 6.625)"><rect width="8.022" height="0.78" transform="translate(0 4.955) rotate(-38.14)" fill="#a1d6ce"/></g></g><path d="M2110.254,1652.384c-.187,2.56-3.8,2.588-7.9,2.112s-3.01.562-8.748.641-7.717-1.817-7.995-2.637c-.248-.728,2.517-1.34,5.473-2.06.373-.089.746-.183,1.119-.277,3.334-.848,5.542-3.343,8.394-5.522,2.7-2.064,6.187-9.533,6.187-9.533l7.839-.354s-3.3,6.7-4.542,9.582a9.446,9.446,0,0,0-.1,5.385A10.031,10.031,0,0,1,2110.254,1652.384Z" transform="translate(-1577.278 -1269.039)" fill="#ffb27d"/><path d="M2102.357,1693.8c-4.1-.476-3.01.562-8.748.642s-7.717-1.817-7.995-2.637c-.248-.727,2.517-1.34,5.473-2.06l.036.054a16.079,16.079,0,0,0,8.42,1.508c3.852-.386,7.782-1.994,10.439-2.282a10.03,10.03,0,0,1,.271,2.663C2110.067,1694.245,2106.455,1694.272,2102.357,1693.8Z" transform="translate(-1577.278 -1308.341)" fill="#233862"/><path d="M2306.565,1640.54c-.185,2.56-3.8,2.591-7.9,2.119s-3.008.565-8.747.65-7.718-1.809-8-2.629c-.249-.727,2.515-1.343,5.471-2.066.372-.089.745-.184,1.118-.278,3.334-.851,5.539-3.348,8.389-5.53,2.7-2.067,0-14.3,0-14.3l8.623-.839s-.414,10.3-.408,14.985c0,1.848.852,3.625,1.171,5.226A10.006,10.006,0,0,1,2306.565,1640.54Z" transform="translate(-1719.448 -1256.665)" fill="#ffb27d"/><path d="M2298.669,1695.73c-4.1-.471-3.008.565-8.747.651s-7.718-1.809-8-2.629c-.249-.728,2.515-1.342,5.471-2.066l.036.054a16.077,16.077,0,0,0,8.421,1.5c3.852-.39,7.78-2,10.438-2.292a10.007,10.007,0,0,1,.274,2.663C2306.38,1696.171,2302.768,1696.2,2298.669,1695.73Z" transform="translate(-1719.448 -1309.736)" fill="#233862"/><path d="M2278.763,889.972c-1.485-6.105.667-8.948,2.608-10.462.921-2.247,1.972-3.867,3.046-4.477a11,11,0,0,1,5.951-1.138,2.779,2.779,0,0,0-1.255-.6,9.221,9.221,0,0,1,3.292.859c14.168-5.459,16.4,15.4,16.1,20.249s-.256,10.554,7.115,14.373c14.064,7.286-4.675,34.742-4.675,34.742.358-3.916-17.713-24.585-27.141-30.775-2.295-3.379-3.111-9.348-3.172-9.818.4,4.733,1.206,7.387,1.929,8.882C2278.262,907.857,2277.625,898.36,2278.763,889.972Z" transform="translate(-1716.809 -717.557)" fill="#a9453d"/><path d="M2300.36,980.914c-.047.022,4.552,2.41,8.011,1.463,3.255-.888,5.381-5.107,5.336-5.116-1.378-.274-1.776-2.167-1.747-10.305l-.623.123-10.476,2.074s.239,3.3.246,6.4C2301.116,978.163,2300.957,980.636,2300.36,980.914Z" transform="translate(-1732.809 -785.417)" fill="#ffb27d"/><path d="M2302.184,969.475s.239,3.3.245,6.4c5.863-.165,8.961-5.513,10.23-8.477Z" transform="translate(-1734.13 -785.739)" fill="#ed975d"/><path d="M2147.322,1344.435a2.571,2.571,0,0,0,2.33,3.348l4.092.191,4.33.132a3.474,3.474,0,0,0,2.8-1.279,121.748,121.748,0,0,0,20.548-38.905q.273-.864.576-1.749c4.262-12.427,13.1-28.026,17.753-42.145.741-2.249,1.406-4.366,2-6.369q.288-.963.555-1.892a149.819,149.819,0,0,0,5.341-28.113l-33.622.269A740.546,740.546,0,0,1,2147.322,1344.435Z" transform="translate(-1621.889 -974.216)" fill="#2f2e41"/><path d="M2248.76,1044.17c.085,16-2.347,22.863-2.347,22.863a45.176,45.176,0,0,0,31.5,1.93c.2-.063,14.167-3.25,14.167-3.25-.287-.647-2.833-11.43-3.112-12.023-3.612-7.757-6.355-11.158-6.783-13.543a50.74,50.74,0,0,1-.417-13.4,107.539,107.539,0,0,1,4.148-21.05c-4.661-1.06-9.027-2.924-13.879-4.744-1.116,1.39-4.528,2.844-7.488,2.777-3.408-.075-4.512-1.534-4.336-3.127-3.631,2.021-6.53,3.93-6.53,3.93-3.087,5.361-9.347,10.568-9.8,18.792C2243.776,1025.344,2248.757,1043.722,2248.76,1044.17Z" transform="translate(-1691.911 -809.781)" fill="#fff"/><path d="M2353.133,1092.04c1.47,2.08,4.287,14.723,11.3,16.312-3.612-9.011-6.355-12.962-6.783-15.732a68.277,68.277,0,0,1-.417-15.57c-2.347-4.113-4.1-6.933-4.1-6.933-.185-.665-3.729-11.626-4.865-1.828S2351.49,1089.713,2353.133,1092.04Z" transform="translate(-1767.37 -855.868)" fill="#5f9aa8"/><path d="M2282.957,924.132s13.869.229,13.879-8.41,1.806-14.428-7.049-14.939-10.579,2.783-11.283,5.666S2279.35,923.85,2282.957,924.132Z" transform="translate(-1716.86 -737.455)" fill="#ffb27d"/><path d="M2296.948,895.543s3.8,10.135,9.625,11.634,8.355-.063,8.355-.063a16.505,16.505,0,0,1-5.4-9.75S2299.812,890.719,2296.948,895.543Z" transform="translate(-1730.338 -732.428)" fill="#a9453d"/><path d="M2281.92,898.8s-2.836,2.263-3.527,4.463-1,6.729-2.322,6.575c0,0-2.861-6.889.354-10.786C2279.833,894.916,2281.92,898.8,2281.92,898.8Z" transform="translate(-1714.369 -734.859)" fill="#a9453d"/><path d="M2198.758,1198.847l-6.551,19.972,3.737,1.5,10.831-17.645Z" transform="translate(-1654.484 -953.353)" fill="#ffb27d"/><path d="M2229.346,1010.583s-7.724,3.065-9.959,7.844-5.621,36.832-6.969,40.123-2.362,5.9-2.362,5.9,3.894,3.281,7.811,3.522S2229.346,1010.583,2229.346,1010.583Z" transform="translate(-1667.411 -817.012)" fill="#2f2e41"/><path d="M2247.95,1000.6s-8.024,19.823-8.26,23.835-.944,65.6-.944,65.6.472,2.832-4.956,1.652-6.843-2.36-6.843-2.36,5.192-37.994,3.776-51.209,10.855-34.769,10.855-34.769Z" transform="translate(-1679.643 -809.781)" fill="#2f2e41"/><path d="M2170.929,1411.932l4.7.144a2.718,2.718,0,0,0,2.181-.984,121.331,121.331,0,0,0,20.8-39.211q.272-.864.576-1.749c4.261-12.427,13.1-28.026,17.753-42.145.741-2.249,1.406-4.365,2-6.369.191-.642.377-1.272.554-1.893l-4.95-3.757s-14.865,24.07-19.466,46.723C2191.083,1382.368,2175.073,1406.044,2170.929,1411.932Z" transform="translate(-1639.075 -1038.173)" fill="#252535"/><path d="M2318.531,1348.026c-.081,10.422.414,33.649,1.682,45a2.051,2.051,0,0,0,2.04,1.823h3.509c1.478,0,2.584-.011,3.319-.022a1.348,1.348,0,0,0,1.3-1.09c3.489-17.752,5.986-32.5,7.813-45.243,1.53-10.666,2.888-19.811,3.934-27.683,1.052-7.922,1.783-14.556,2.045-20.16q.061-1.324.087-2.575t.015-2.442l-29.05-2.832C2315.593,1312.106,2318.578,1341.624,2318.531,1348.026Z" transform="translate(-1743.576 -1021.398)" fill="#2f2e41"/><path d="M2353.423,1415.463c1.328,0,2.356-.009,3.083-.018a1.637,1.637,0,0,0,1.582-1.322c3.465-17.65,5.948-32.327,7.768-45.015,1.53-10.666,2.888-19.811,3.934-27.683,1.052-7.922,1.784-14.556,2.046-20.16l-10.66,6.27s6.8,2.4,4.208,20.571S2357.036,1412.89,2353.423,1415.463Z" transform="translate(-1771.238 -1042.009)" fill="#252535"/><path d="M2322.382,1089.919s2.046,7.394,9.125,6.45,17.147-5.192,17.147-5.192-3.026-9.56-6.787-22.119c-4.555-15.2-10.192-34.806-12.85-47.169a76.73,76.73,0,0,1-1.445-8.429l-5.873-11.4s-8.758,19.655-9.229,24.611S2322.382,1089.919,2322.382,1089.919Z" transform="translate(-1741.569 -810.842)" fill="#2f2e41"/><path d="M2302.227,1025.936l-7.752-23.872c.021.01,9.791,2.906,14.705,5.39,0,0,3.072,3.961,4.972,13.1,0,0,2.008,21.935-2.476,29.959,0,0-14.159,2.832-36.814-4.955v-5.192s24.778,1.3,29.853,1.888Z" transform="translate(-1714.344 -810.842)" fill="#ffb27d"/><path d="M2349.571,1089.116c.315,8.024,2.2,23.6,19.037,31.936.045.021.09.045.134.064-4.555-15.2-10.192-34.806-12.849-47.169C2352.8,1078.567,2349.4,1084.7,2349.571,1089.116Z" transform="translate(-1768.443 -862.9)" fill="#252535"/><path d="M2343.793,1002.064s14.37,1.012,17.831,8.721,4.563,33.353.157,40.9c0,0-6.065,1.727-16.791-.279l-.4-.075s-3.421-8.378-.354-10.029c0,0,9.046.472,8.1-2.517S2343.793,1002.064,2343.793,1002.064Z" transform="translate(-1763.662 -810.842)" fill="#2f2e41"/><g transform="translate(542.396 225.392)"><path d="M2215.336,1133.3l.424,1.36,23.58-7.335a.905.905,0,0,0,.159-.834.667.667,0,0,0-.582-.527Z" transform="translate(-2213.631 -1125.962)" fill="#a9453d"/><path d="M2209.154,1153.844l1.7-1.285.424,1.36Z" transform="translate(-2209.154 -1145.224)" fill="#a9453d"/></g><path d="M2176.815,1269.281s-5.982,3.305-6.769,5.824-.246,7.792.7,7.713,2.366-5.667,3.153-6.06,1.89-1.573,1.89-.708-.788,2.439-.394,2.675,1.653-2.2,2.519-2.675,1.229-4.365,2.071-5.41S2176.815,1269.281,2176.815,1269.281Z" transform="translate(-1638.161 -1004.362)" fill="#ffb27d"/><path d="M2239.313,1133.468s-5.349-3.295-7.593-2.788-7.963,4.649-5.212,5.546,4.979-.044,6.037.607,1.838,1.842,6.769,1.826S2239.313,1133.468,2239.313,1133.468Z" transform="translate(-1678.794 -903.948)" fill="#ffb27d"/><path d="M718.106,872.263c-.9-1.73,19.564-7.958,19.888,9.111,0,0,38.329-.942,20.028-22.306-6.336-7.4-5.684-13.511-5.494-19.2s-3.946-22.239-18.133-20.573a10.564,10.564,0,0,0-8.352.894C715.5,825.656,691.877,878.558,718.106,872.263Z" transform="translate(-578.284 -678.138)" fill="#0f253a"/><path d="M976.677,1069.932s2.495-3.8,4.505-3.872,5.735-1.117,5.437-.372-2.607.819-2.83,1.266,3.426,1.117,4.468,1.191,3.5,0,3.426.522-4.43,2.681-7.5,2.383a20.842,20.842,0,0,0-6.871.893Z" transform="translate(-774.191 -856.725)" fill="#ffb27d"/><path d="M845.847,1006.594a37.4,37.4,0,0,0,3.816,5.771c2.965,3.714,7.536,8,13.276,8.85a14.249,14.249,0,0,0,7.887-1.28l.009,0c6.971-3.095,12.212-10.211,12.212-10.211a5.73,5.73,0,0,0-.781-5.623s-14.076,3.166-15.416,2.5-9.16-23.2-11.021-26.028-8.209-4.3-8.209-4.3Z" transform="translate(-679.444 -792.159)" fill="#2f2e41"/><path d="M858.52,1087.573c2.965,3.713,7.536,8,13.276,8.85a14.248,14.248,0,0,0,7.887-1.28c-.273.036-7.234.9-10.009-4.069-2.831-5.065-5.891-13.108-10.1-10.427C857.763,1081.8,857.843,1084.679,858.52,1087.573Z" transform="translate(-688.301 -867.366)" fill="#252535"/><path d="M646.078,1632.268s-4.295,3.92-3.457,6.7,4.714,4.642,5.238,8.045,2.619,5.261,4.5,5.261h8.99s1.388-2.4-1.964-3.117-4.616-4.722-4.406-8.436a65.474,65.474,0,0,0-.314-8.664l-7.123-1.65Z" transform="translate(-532.188 -1265.895)" fill="#252535"/><path d="M785.685,1643.176s-1.545,16.6.34,17.533l24.131-.05s0-2.785-3.876-3.4-10.685-2.888-11.837-7.943S785.685,1643.176,785.685,1643.176Z" transform="translate(-635.442 -1275.139)" fill="#252535"/><path d="M724.612,1000.289c4.966-11.137,8-14.333,7.424-17.79-.432-2.573,1.315-47.966,1.315-47.966.589-.182,1.77-.346,2.416-.49a6.058,6.058,0,0,0,4.424-3.848,30.884,30.884,0,0,0,1.5-10.242l.636.125,10.7,2.118s-.243,3.366-.25,6.537c0,.026,0,.053,0,.079a6.153,6.153,0,0,0,4.439,5.948c1.351.39,2.527.723,2.527.723a98.088,98.088,0,0,1,4.677,22.731c.75,11.519-7.142,16.523.06,39.542C771.829,1021.268,721.868,1006.443,724.612,1000.289Z" transform="translate(-591.565 -751.378)" fill="#ffb27d"/><path d="M799.833,922.526s-.243,3.366-.25,6.537c-5.985-.169-9.149-5.629-10.445-8.655Z" transform="translate(-638.375 -751.707)" fill="#e8945b"/><path d="M797.538,876.23s-14.161.234-14.17-8.588-1.844-14.731,7.2-15.253,10.8,2.842,11.521,5.785S801.222,875.942,797.538,876.23Z" transform="translate(-634.081 -702.408)" fill="#ffb27d"/><path d="M785.058,847.04s-3.877,10.349-9.827,11.878-8.531-.064-8.531-.064a16.85,16.85,0,0,0,5.511-9.955S782.133,842.115,785.058,847.04Z" transform="translate(-622.124 -697.275)" fill="#0f253a"/><path d="M829.781,850.363a8.786,8.786,0,0,1,4.059,3.172,14.259,14.259,0,0,1,1.914,8.1s2.921-7.034-.362-11.013C831.911,846.4,829.781,850.363,829.781,850.363Z" transform="translate(-667.809 -699.758)" fill="#0f253a"/><path d="M823.994,917.835a3.559,3.559,0,0,0,2.932,1.193,2.6,2.6,0,0,0,2.182-1.44A9.512,9.512,0,0,0,823.994,917.835Z" transform="translate(-663.618 -749.485)" fill="#ebf3fa"/><path d="M719.522,992.895a96.093,96.093,0,0,0,0,11.154c.239,4.033,4.319,9.434,4.9,10.771,1.452,3.352,3.09,3.9,3.09,3.9l12.67,3.106,4.455,1.09,14.048-4.2s6.4-17.86,3.83-27.914a77.264,77.264,0,0,0-6.5-17.036s-11.463,11.225-26.39-.952Z" transform="translate(-587.843 -789.659)" fill="#2f2e41"/><path d="M733.389,1081.323c.239,4.032.61,7.788,1.189,9.125,1.452,3.351,3.09,3.9,3.09,3.9l12.67,3.106,5.5-1.618s-18.37-2.784-16.334-18.589Z" transform="translate(-598.001 -865.287)" fill="#f2ccaa"/><path d="M797.488,1149.077s6.957,21.655,7.4,29.028-13.3,104.738-13.852,108.136c-.521,3.2-4.5,5.244-4.5,5.244a6.016,6.016,0,0,1-4.439.342c-3.622-1.023-4.766-2.247-4.766-2.247s-5.415-69.441-2.064-94.246a392.88,392.88,0,0,0,3.391-46.257Z" transform="translate(-627.541 -917.31)" fill="#252535"/><path d="M685.872,1146.736s-10.612,14.239-11.6,23.865-1.552,43.437-3.66,52.82-9.852,27.442-9.852,56.71a5.838,5.838,0,0,0,3.29,2.571,27.09,27.09,0,0,0,2.894.8,4.55,4.55,0,0,0,5.088-2.415c5.236-10.542,21.914-44.541,22.768-51.6.605-4.995,5.871-38.05,17.358-57.447,2.758-4.657-1.693-23.175-1.693-23.175Z" transform="translate(-545.401 -915.614)" fill="#2f2e41"/><path d="M825.135,918.244s.245,1.039,2.831.879c0,0,2.171-.134,2.1-1.277A6.986,6.986,0,0,0,825.135,918.244Z" transform="translate(-664.444 -749.658)" fill="#fff"/><path d="M778.456,1136.956s-2.793,2.209-8.341,2.321c-6.628.134-23.049-1.689-23.049-1.689a13.579,13.579,0,0,0-.7,4.191s20.057,5.059,31.678.739A7.345,7.345,0,0,0,778.456,1136.956Z" transform="translate(-607.398 -908.532)" fill="#306868"/><g transform="translate(161.283 229.611)"><path d="M827.28,1144.683a3.047,3.047,0,1,1,3.024,3.423A3.245,3.245,0,0,1,827.28,1144.683Zm1,0a2.055,2.055,0,1,0,2.021-2.421A2.25,2.25,0,0,0,828.283,1144.683Z" transform="translate(-827.28 -1141.26)" fill="#fff"/></g><rect width="27.247" height="37.297" transform="matrix(-0.754, -0.657, 0.657, -0.754, 138.624, 250.235)" fill="#51c4c2"/><path d="M761.961,1151.4s7.529.881,7.505,2.668-1.876,5.459-2.806,5.622-6.127-4.965-6.127-4.965Z" transform="translate(-617.659 -918.99)" fill="#ffb27d"/><path d="M690.753,972.814s-10.052.7-13.905,10.071-11.164,25.094-11.164,27.74,4.084,10.8,26.016,15.491c0,0,2.268-2.386,2.131-4.273,0,0-13.691-11.76-13.654-13.134.069-2.6,2.244-6.032,14.265-18.055C697.71,987.384,690.753,972.814,690.753,972.814Z" transform="translate(-548.969 -789.659)" fill="#2f2e41"/><g transform="translate(251.747 318.576)"><path d="M1156.388,1531.131h-.1a1,1,0,0,1-1-1.023l1.517-65.751,4.469-.521-3.811,66.277A1.081,1.081,0,0,1,1156.388,1531.131Z" transform="translate(-1155.292 -1463.835)" fill="#a1d6ce"/></g><g transform="translate(225.706 318.576)"><path d="M1061.969,1531.131h-.1a1,1,0,0,1-1-1.023l1.517-65.751,4.469-.521-3.811,66.277A1.081,1.081,0,0,1,1061.969,1531.131Z" transform="translate(-1060.873 -1463.835)" fill="#8ac1b6"/></g><g transform="translate(293.769 318.576)"><path d="M1312.549,1531.131h.1a1,1,0,0,0,1-1.023l-1.517-65.751-4.468-.521,3.81,66.277A1.081,1.081,0,0,0,1312.549,1531.131Z" transform="translate(-1307.659 -1463.835)" fill="#a1d6ce"/></g><path d="M1054.111,1294.934v-45.056a14.355,14.355,0,0,1,14.355-14.355h32.462a14.355,14.355,0,0,1,14.355,14.355v46.777Z" transform="translate(-830.269 -979.915)" fill="#a1d6ce"/><path d="M0,0H66.987a0,0,0,0,1,0,0V7.113a0,0,0,0,1,0,0H7.113A7.113,7.113,0,0,1,0,0V0A0,0,0,0,1,0,0Z" transform="translate(223.841 315.02)" fill="#8ac1b6"/><rect width="53.792" height="7.113" rx="3.557" transform="translate(247.735 315.02)" fill="#a1d6ce"/><path d="M1226.09,1406.75c-4.651,8.094-10.5,11.218-10.5,11.218h-24.333S1229.638,1400.576,1226.09,1406.75Z" transform="translate(-929.591 -1102.958)" fill="#252535"/><path d="M1248.272,1584.3a2.25,2.25,0,0,0-.4,2.406.02.02,0,0,0,.006.012c.58,1.6,2.5,3.395,4.725,5.183.284.23.538.439.758.632.058.051.116.1.17.153s.088.08.131.118c2.077,1.915,1.3,2.353,5.027,6.238,4.255,4.427,7.184,4.506,8.017,4.1.7-.343-.727-2.691-2.314-5.33-.077-.127-.152-.256-.231-.385-.212-.351-.421-.707-.631-1.059-1.86-3.176-1.382-4.666-.941-9.392.358-3.841,5.975-21.457,5.975-21.457l-8.153-1.4s-2.455,14.028-5.161,16.188c-1.447,1.151-3.066,1.166-4.456,2.019-.1.059-.195.12-.29.183A10.7,10.7,0,0,0,1248.272,1584.3Z" transform="translate(-970.462 -1217.881)" fill="#ffb27d"/><path d="M1248.272,1632.109a2.249,2.249,0,0,0-.4,2.406.02.02,0,0,0,.006.012c.71,1.6,2.579,3.384,4.732,5.167.281.234.53.448.751.648.058.051.116.1.17.153s.088.08.131.118c2.077,1.915,1.3,2.353,5.027,6.238,4.255,4.427,7.184,4.506,8.017,4.1.7-.344-.727-2.692-2.314-5.33a18.135,18.135,0,0,1-7.584-5.589c-2.562-3.269-4.27-7.469-6.014-9.9-.1.059-.195.12-.29.183A10.69,10.69,0,0,0,1248.272,1632.109Z" transform="translate(-970.462 -1265.693)" fill="#2f2e41"/><path d="M1471.047,1572.689c.5,2.516,4.091,2.1,8.1,1.117s3.055.185,8.76-.446,7.432-2.759,7.606-3.607c.156-.753-2.663-1.018-5.686-1.366-.38-.042-.762-.09-1.144-.137-3.413-.428-5.913-2.631-9.013-4.439-2.937-1.714-7.319-8.694-7.319-8.694l-7.823.62s4.105,6.235,5.693,8.946a9.452,9.452,0,0,1,.768,5.331A10.037,10.037,0,0,0,1471.047,1572.689Z" transform="translate(-1127.494 -1211.365)" fill="#ffb27d"/><path d="M1495.955,1608.654c4.008-.979,3.055.185,8.759-.446s7.432-2.759,7.606-3.607c.156-.753-2.663-1.018-5.686-1.366l-.028.058a16.081,16.081,0,0,1-8.169,2.539c-3.87.094-7.969-1.015-10.642-.971a10.023,10.023,0,0,0,.06,2.676C1488.359,1610.053,1491.947,1609.633,1495.955,1608.654Z" transform="translate(-1144.303 -1246.213)" fill="#2f2e41"/><path d="M1309,1404.534l-7.313,19.678-9.548,25.694a15.468,15.468,0,0,1-5.072-.464,22,22,0,0,1-4.905-2.388s2.651-27.588,7.6-43.425c1.267-4.065,2.688-7.353,4.255-9.2C1301.677,1385.366,1309,1404.534,1309,1404.534Z" transform="translate(-995.423 -1093.232)" fill="#252535"/><path d="M1166.771,1313.828c-4.791-1.545-18.455.439-32.182,3.126l-2.874-4.74-29.649-2.316s-9.783,21.7-4.427,35.521a5.012,5.012,0,0,0,5.018,3.378s.432,0,.433,0,17.646-.01,23.376-.01c14.745,0,31.2-10.135,33.334-10.561,3.485-.7,4.88,6.273,8.365,13.593s32.762,32.413,32.762,32.413,4.5.045,6.358-.652a6.265,6.265,0,0,0,2.73-1.723S1177.574,1317.313,1166.771,1313.828Z" transform="translate(-860.632 -1033.777)" fill="#2f2e41"/><path d="M1089.209,998.733c-3.8-1.994-9.577-2.264-10.516-2.391-11.235-1.51-18,14.816-18.394,19.762-.733,9.118-5.557,10.508-12.346,16.218-13.613,11.45-9.621,24.754-2.177,29.7,4.466,2.966,12.338,0,12.338,0,.111.078,21.529-11.973,32.087-17.786C1106.028,1041.984,1098.887,1003.815,1089.209,998.733Z" transform="translate(-819.292 -806.627)" fill="#0f253a"/><path d="M1154.753,1108.715c.047.03-5.195,1.819-8.7.267-3.3-1.457-5.795-6.881-5.746-6.884,1.5-.069,3.146-1.38,4.415-9.984l.639.229,10.738,3.864s-.778,3.445-1.281,6.726C1154.394,1105.687,1154.167,1108.326,1154.753,1108.715Z" transform="translate(-892.693 -876.057)" fill="#ffb27d"/><path d="M1169.369,1096.809s-.778,3.445-1.281,6.726c-6.167-1.11-8.588-7.255-9.456-10.59Z" transform="translate(-905.964 -876.659)" fill="#ed975d"/><path d="M1168.144,1051.5s-14.691-1.972-13.322-11.1.394-15.534,9.832-14.661,10.733,4.63,11.018,7.788S1172,1051.774,1168.144,1051.5Z" transform="translate(-903.14 -827.926)" fill="#ffb27d"/><path d="M1164.068,1026.4s-9.4,8.1-15.8,8.758-8.819-1.4-8.819-1.4a24.976,24.976,0,0,0,6.04-8.183,4.5,4.5,0,0,1,3.708-2.651C1153.764,1022.527,1162.422,1022.347,1164.068,1026.4Z" transform="translate(-892.071 -825.807)" fill="#0f253a"/><path d="M1207.4,1028.788s3.146,3.042,4.137,5.3c.957,2.177,1.243,7.385.481,9.453,0,0,4.9-9.532,2.127-14.163C1211.2,1024.466,1207.4,1028.788,1207.4,1028.788Z" transform="translate(-941.284 -828.923)" fill="#0f253a"/><path d="M1134.018,1155.665c-.444,29.739-.122,23.524-3.375,26.346-.784.679-2.987,1.084-5.887,1.276-9.119.6-25.149-.9-25.759-2.583-2.1-5.831-.618-7.642-2.373-16.57-.183-.949-.409-1.977-.675-3.1-1.463-6.132-2.887-8.218,2.3-18.068,4.707-8.923,9.6-16.164,10.038-15.9,12.42,7.373,13.421,1.176,13.421,1.176S1134.236,1141.159,1134.018,1155.665Z" transform="translate(-859.587 -901.365)" fill="#fff"/><path d="M1301.684,1454.768l-9.548,25.694a15.464,15.464,0,0,1-5.072-.464,22,22,0,0,1-4.905-2.387s2.651-27.588,7.6-43.425Z" transform="translate(-995.423 -1123.786)" fill="#2f2e41"/><path d="M1192.92,1131.342s12.779,2.166,14.28,7.669,10.332,37.849,10.332,37.849-6.5,1.167-9.5-1.834-10.443-27.845-10.443-27.845Z" transform="translate(-930.796 -904.466)" fill="#fff"/><path d="M1130.085,1248.119c-9.119.605-25.149-.9-25.759-2.583-2.1-5.831-.618-7.642-2.373-16.57l4.4-12.385s-.727,13.792,3.34,17.419,16.653,7,18.63,10.033A11.1,11.1,0,0,1,1130.085,1248.119Z" transform="translate(-864.917 -966.197)" fill="#ebf3ff"/><path d="M1166.072,1306.242s9-2,10.448-1.2,5,3.706,5.443,4.718-3.231-.768-4.427-1.089c-.774-.208-2.812.5-3.821.837-4.246,1.415-6.848.688-6.848.688Z" transform="translate(-911.352 -1030.121)" fill="#ffb27d"/><path d="M1067.7,1127.061s-12.08.744-16.262,6.576c-5.886,8.211-17.564,43.2-10.872,47.867,7.537,5.255,34.3,1.375,34.3,1.375s.891-4.163-.349-6.177-21.377-5.267-22.307-6.2,11.618-18.125,11.618-20.912S1067.7,1127.061,1067.7,1127.061Z" transform="translate(-819.007 -901.366)" fill="#fff"/><path d="M1205.534,1314.61a17.412,17.412,0,0,0,2.5,2.722,1.843,1.843,0,0,0,1.017.218l-1.27-2.286Z" transform="translate(-939.931 -1037.19)" fill="#ffb27d"/><path d="M1203.955,1305.531l5.481,2.661a.977.977,0,0,1-.908.35,13.068,13.068,0,0,1-2.377-.653Z" transform="translate(-938.787 -1030.615)" fill="#ffb27d"/><path d="M1214.609,1252.828h43.352L1271,1220.4h-43.285Z" transform="translate(-946.503 -968.961)" fill="#4fa39b"/><path d="M1223.319,1333.4h-57.246v1.264h56.738Z" transform="translate(-911.353 -1050.799)" fill="#438982"/><path d="M1321.059,1273.771a1.5,1.5,0,0,0-1.473-2.064,2.958,2.958,0,0,0-2.656,2.064,1.5,1.5,0,0,0,1.472,2.065A2.959,2.959,0,0,0,1321.059,1273.771Z" transform="translate(-1020.544 -1006.119)" fill="#fff"/><g transform="translate(245.06 284.163)"><g transform="translate(243.002 8.686)"><path d="M2018.611,1464.776h.126a1.366,1.366,0,0,0,1.323-1.434l-2.007-92.06-5.909-.729,5.039,92.8A1.468,1.468,0,0,0,2018.611,1464.776Z" transform="translate(-2012.144 -1370.553)" fill="#539692"/></g><g transform="translate(8.426 8.686)"><path d="M1163.047,1464.776h-.126a1.366,1.366,0,0,1-1.323-1.434l2.006-92.06,5.91-.729-5.04,92.8A1.468,1.468,0,0,1,1163.047,1464.776Z" transform="translate(-1161.598 -1370.553)" fill="#539692"/></g><path d="M5.554,0H254.78a5.554,5.554,0,0,1,5.554,5.554v0a5.554,5.554,0,0,1-5.554,5.554H5.555A5.555,5.555,0,0,1,0,5.554v0A5.554,5.554,0,0,1,5.554,0Z" fill="#539692"/></g><path d="M939.826,677.317c-.955-23.638,18.858-34.14,39.116-34.14s42.3,5.249,44.214,36.681c1.229,20.221-9.551,32.663-40.591,32.663-10.468,0-18.6-1.651-24.836-4.6l-15.516,13.787,7.625-19.057C943.084,696.376,940.238,687.517,939.826,677.317Z" transform="translate(-747.48 -550.935)" fill="#b5e2de"/><path d="M2614.354,1689.331a27.589,27.589,0,0,1,1.89-7.081c1.32-2.64,9.721-.96,9.721-.96s1.68,1.44,2.041,8.161Z" transform="translate(-1960.205 -1302.36)" fill="#252535"/><path d="M2440.377,1674.74c1.975-1.2.851-10.193.851-10.193s-9.2-7.358-10.463-1.725-8.739,8.164-12.993,8.854c-2.937.476-3.846,2.1-4.127,3.064Z" transform="translate(-1814.851 -1287.829)" fill="#252535"/><path d="M2497.368,1294.418a42.471,42.471,0,0,0-.675,4.969c-.855,16.679-14.04,54.814-16.4,55.7-3.649,1.377-9.395-1.55-12.4-2.507a2.58,2.58,0,0,1-1.81-2.929c6.53-30.017,8.93-73.24,9.8-98.83a116.113,116.113,0,0,1,2.654-21.793s32.157-8.58,32.348,2.274C2511.057,1240.908,2500.236,1278.574,2497.368,1294.418Z" transform="translate(-1852.789 -972.881)" fill="#2f2e41"/><path d="M2523.246,1294.418l-21.481-43.594a116.05,116.05,0,0,1,2.654-21.793s32.156-8.58,32.347,2.274C2536.935,1240.908,2526.114,1278.574,2523.246,1294.418Z" transform="translate(-1878.667 -972.881)" fill="#252535"/><path d="M2553.713,1235.574l17,123.208s7.465,1.8,13.271.36c0,0,4.977-65.527,4.562-81.369s3.572-42.39-.91-45.318S2553.713,1235.574,2553.713,1235.574Z" transform="translate(-1916.289 -977.113)" fill="#2f2e41"/><path d="M2557.394,1040.412a2.361,2.361,0,0,1-1.7,2.437c-2.372.688-5.1,1.167-10.378,2.259a100.621,100.621,0,0,1-19.8,1.99c-13.022.083-17.952-4.405-17.952-4.405-.561.01.3-2.715,1.068-15.673.262-4.39.515-9.953.7-16.985.165-6.327.275-13.844.286-22.762.014-10.727,16.618-22.268,16.925-22.268l0,.005c0,1.545,2.435,4.395,6.184,4.641,4.45.291,9.91-1.924,9.91-4.486,0-.026,8.045,12.869,10.9,26.609C2554.977,998.69,2554.393,998.5,2557.394,1040.412Z" transform="translate(-1882.733 -784.004)" fill="#fff"/><path d="M2503.4,965.007s-15.44-.131-19.156,5.08-11.864,33.247-7.612,42.575,12.207-3.859,16.623-9.573S2503.4,965.007,2503.4,965.007Z" transform="translate(-1859.599 -784.005)" fill="#fff"/><path d="M2576.144,932.287l.009,1.6s-.435,4.992,5.712,5.72,10.708-.932,10.542-4.784a55.519,55.519,0,0,1-1.108-8.513,17.393,17.393,0,0,1,.219-2.989l-11.91-.238-3.508.573Z" transform="translate(-1932.5 -753.642)" fill="#ffb27d"/><path d="M2576.1,923.653l.046,8.634a10.071,10.071,0,0,0,4.292.947c5.475,0,9.013-4.014,10.862-6.927a17.393,17.393,0,0,1,.219-2.989l-11.91-.238Z" transform="translate(-1932.5 -753.642)" fill="#e2915a"/><path d="M2583.683,867.808c-1.382,7.437-10.979,7.193-15.126,6.725-1.167-.13-1.9-.279-1.9-.279-1.316-.352-2.05-2.424-2.391-5.139-.677-5.373.178-13.261,1.086-15.278,1.366-3.035,3.939-6.319,13.6-3.95S2585.456,858.279,2583.683,867.808Z" transform="translate(-1923.754 -700.048)" fill="#ffb27d"/><path d="M2504.352,1040.764s-5.971,13.188-5.8,17.141a20.6,20.6,0,0,1,5.8.745C2509.021,1060.042,2504.352,1040.764,2504.352,1040.764Z" transform="translate(-1876.34 -838.869)" fill="#ebf3ff"/><path d="M2557.835,832.195a31.973,31.973,0,0,0,9.271-2.509c4.073-1.771,9.21.179,10.878,1.058a2.483,2.483,0,0,0-.407-1,2.236,2.236,0,0,1,.859,1.273c.077.057.112.1.092.109a2.874,2.874,0,0,1,1.394.09s-.382-.054-.518.191a.232.232,0,0,1-.061.068c6.352,3.069,6.938,13.109,4.894,15.432a80.73,80.73,0,0,0-6.173,9.119,11.472,11.472,0,0,1,.137-3.976c.447-2.459-1.677-2.459-4.36-3.577s-.448-4.248-2.8-6.149-10.955-.783-10.843-2.236C2557.007,838.919,2557.835,832.522,2557.835,832.195Z" transform="translate(-1919.204 -685.485)" fill="#252535"/><path d="M2547.888,1128.847c-2.521,10.123-29.783,15.354-35.981,16.417.261-4.39.514-9.953.7-16.985Z" transform="translate(-1886.013 -902.248)" fill="#ebf3ff"/><path d="M2616.241,1114.256c.26,0,6.06-.865,7.1-1.385s5.791-7.273,2.679-9-11.466,5.195-11.466,5.195Z" transform="translate(-1960.35 -884.367)" fill="#ffb27d"/><path d="M2492.191,1117.717s22.436,1.217,37.491-2.007a6.471,6.471,0,0,0-4.352-6.282s-23.466-4.974-29.1-3.589S2492.191,1117.717,2492.191,1117.717Z" transform="translate(-1871.582 -885.821)" fill="#fff"/><path d="M2629.242,998.712c-4.656,5.614-10.743,10.2-17.453,11.271v0a12.505,12.505,0,0,1-1.661-7.493,15,15,0,0,1,2.443-6.878,15.209,15.209,0,0,0,1.32-2.66c3.664-9.349,3.119-27.368,3.119-27.368s15.561,1.629,20.409,8.556C2640.387,978.381,2636.6,989.836,2629.242,998.712Z" transform="translate(-1957.11 -784.423)" fill="#fff"/><path d="M2569.2,927.151c-1.167-.13-1.9-.278-1.9-.278-1.316-.352-2.05-2.424-2.391-5.139a6.5,6.5,0,0,1,4.069,3.326A4.782,4.782,0,0,1,2569.2,927.151Z" transform="translate(-1924.394 -752.666)" fill="#e2915a"/><path d="M2550.422,932.239s-5.374-8.867-1.2-9.253a6.32,6.32,0,0,1,6.462,3.481c.6,1.039-.157,5.726-.157,5.726Z" transform="translate(-1911.888 -753.547)" fill="#ffb27d"/><path d="M2575.081,991.562a11.554,11.554,0,0,1-.916,3.079,14.743,14.743,0,0,1-3.422,4.713v0c-13.957-6.3-16.781-27.932-17.254-39.818-.191-4.778,0-7.981,0-7.981,6.3-2.085,8.065,1.538,8.065,1.538s7.434,17.678,11.29,29.231C2574.319,986.743,2575.27,990.269,2575.081,991.562Z" transform="translate(-1916.064 -773.794)" fill="#fff"/><path d="M2588.419,1010.739c-4.657,5.614-10.743,10.2-17.453,11.271v0c-13.957-6.3-16.781-27.932-17.254-39.818,0,0,6.6,23.953,15.593,32.325a9.805,9.805,0,0,0,5.084,2.781s11.335-3.2,13.712-6.22A1.286,1.286,0,0,1,2588.419,1010.739Z" transform="translate(-1916.287 -796.449)" fill="#ebf3ff"/><path d="M1609.762,1253.9H1566.41l-13.041-32.43h43.285Z" transform="translate(-1191.835 -969.74)" fill="#4fa39b"/><path d="M1598.813,1334.479h57.246v1.263h-56.738Z" transform="translate(-1224.745 -1051.578)" fill="#438982"/><path d="M1640.115,1274.846a1.5,1.5,0,0,1,1.472-2.064,2.958,2.958,0,0,1,2.656,2.064,1.5,1.5,0,0,1-1.472,2.064A2.957,2.957,0,0,1,1640.115,1274.846Z" transform="translate(-1254.596 -1006.898)" fill="#fff"/></g></svg>