<svg xmlns="http://www.w3.org/2000/svg" width="25" height="25" viewBox="0 0 25 25">
  <g id="Group_49" data-name="Group 49" transform="translate(-76.217 -138.953)">
    <path id="Path_157" data-name="Path 157" d="M101.217,150.67v1.563c-.02.16-.042.32-.06.48a12.531,12.531,0,0,1-10.268,11.046c-.462.084-.931.13-1.4.194H87.93a1.7,1.7,0,0,0-.188-.041,12.06,12.06,0,0,1-7.206-3.019,12.2,12.2,0,0,1-4.261-10.7,11.837,11.837,0,0,1,3.065-7.008,12.24,12.24,0,0,1,9.162-4.231,11.86,11.86,0,0,1,6.6,1.758,12.319,12.319,0,0,1,5.919,8.582C101.11,149.751,101.154,150.212,101.217,150.67Zm-12.506-6.434v.086c-1.026,0-2.052-.019-3.076.006a4.279,4.279,0,0,0-2.334.687,3.852,3.852,0,0,0-1.707,3.313c-.042,2.081-.026,4.165,0,6.248a4.1,4.1,0,0,0,.683,2.284,3.863,3.863,0,0,0,3.314,1.708c2.082.042,4.167.033,6.25,0a3.994,3.994,0,0,0,2.763-1.061,4.042,4.042,0,0,0,1.236-2.983c.042-1.708.043-3.418.044-5.126a15.083,15.083,0,0,0-.086-1.51,3.771,3.771,0,0,0-3.522-3.509C91.089,144.28,89.9,144.28,88.711,144.236Z" transform="translate(0)" fill="#fff"/>
    <path id="Path_158" data-name="Path 158" d="M81.551,150.116c.032-1.066.037-2.157.1-3.243a2.461,2.461,0,0,1,1.32-2.172,3.328,3.328,0,0,1,1.568-.353c2.033,0,4.068-.023,6.1.04a2.446,2.446,0,0,1,2.524,2.53q.086,3.228,0,6.461a2.445,2.445,0,0,1-2.512,2.519q-3.228.084-6.46,0a2.479,2.479,0,0,1-2.545-2.542C81.584,152.287,81.582,151.212,81.551,150.116Zm5.855-3.625a3.655,3.655,0,1,0,3.66,3.66A3.65,3.65,0,0,0,87.406,146.491Zm3.809.7a.851.851,0,1,0-.852-.836A.847.847,0,0,0,91.215,147.194Z" transform="translate(1.299 1.306)" fill="#fff"/>
    <path id="Path_159" data-name="Path 159" d="M89.146,149.505a2.373,2.373,0,1,1-2.378-2.361A2.376,2.376,0,0,1,89.146,149.505Z" transform="translate(1.938 1.934)" fill="#fff"/>
  </g>
</svg>
