<svg xmlns="http://www.w3.org/2000/svg" width="25" height="24.996" viewBox="0 0 25 24.996">
  <path id="Path_161" data-name="Path 161" d="M22.728,135.522H24.29c.418.054.837.093,1.252.164a12.546,12.546,0,0,1,10.274,10.182c.081.454.129.914.192,1.372V148.8c-.037.3-.068.6-.111.892a12.083,12.083,0,0,1-3.448,7.033,12.146,12.146,0,0,1-11.52,3.51,11.948,11.948,0,0,1-7.385-4.695,12.455,12.455,0,0,1,1.063-16.28,12.238,12.238,0,0,1,6.747-3.55C21.81,135.634,22.271,135.585,22.728,135.522Zm-5.244,7.35a2.673,2.673,0,0,0-.4,1.523,2.922,2.922,0,0,0,1.214,2.262l-.039.066-1.209-.337a2.925,2.925,0,0,0,2.209,2.8l-.015.06H18.073a2.88,2.88,0,0,0,1,1.41,3.084,3.084,0,0,0,1.668.6,5.911,5.911,0,0,1-4.2,1.192c.087.062.121.092.161.115a8.158,8.158,0,0,0,12.377-7.132.446.446,0,0,1,.187-.409,3.923,3.923,0,0,0,.563-.5c.224-.236.426-.492.673-.78l-1.523.408-.03-.064a2.865,2.865,0,0,0,1.146-1.451l-1.577.563a.325.325,0,0,1-.365-.092,2.87,2.87,0,0,0-4.8,1.784,8,8,0,0,0-.006.978A8.215,8.215,0,0,1,17.484,142.872Z" transform="translate(-11.008 -135.522)" fill="#fff"/>
</svg>
