<svg xmlns="http://www.w3.org/2000/svg" width="25" height="25" viewBox="0 0 25 25">
  <path id="Path_160" data-name="Path 160" d="M230.692,149.33v1.077a1.983,1.983,0,0,0-.061.257c-.037.331-.053.666-.1,1a12.486,12.486,0,0,1-14.152,10.576,11.879,11.879,0,0,1-7.065-3.569,12.169,12.169,0,0,1-3.434-10.9,12.011,12.011,0,0,1,4.734-7.842,12.553,12.553,0,0,1,11.567-1.906,12.476,12.476,0,0,1,8.4,10.469C230.614,148.771,230.655,149.05,230.692,149.33Zm-11.39-2.253c-.009-.025-.031-.055-.028-.082.024-.251-.111-.289-.326-.287-.831.01-1.663.008-2.493,0-.187,0-.259.054-.259.249q.007,4.993,0,9.985c0,.2.069.25.257.247.757-.008,1.515,0,2.273,0,.6-.005.541.112.542-.547q0-2.912,0-5.824c0-.136-.023-.276.146-.352a11.721,11.721,0,0,1,1.107-.515c.593-.2,1.245-.138,1.5.525a1.417,1.417,0,0,1,.092.5c.006,1.958,0,3.916,0,5.873,0,.343,0,.343.331.343h2.419c.319,0,.32,0,.32-.318q0-3.022,0-6.045a3.075,3.075,0,0,0-.047-.558,4.038,4.038,0,0,0-4.788-3.417C220,146.9,219.66,147,219.3,147.078Zm-7.554,4.875c0,1.655,0,3.31,0,4.966,0,.217.062.277.276.274q1.258-.018,2.516,0c.209,0,.287-.057.286-.274q-.007-4.965,0-9.933c0-.215-.076-.279-.286-.277-.83.01-1.662.012-2.492,0-.237,0-.3.07-.3.3C211.751,148.658,211.748,150.306,211.748,151.953Zm3.42-8.151a1.9,1.9,0,1,0-1.893,1.883A1.871,1.871,0,0,0,215.168,143.8Z" transform="translate(-205.692 -137.372)" fill="#fff"/>
</svg>
